<?xml version="1.0" encoding="UTF-8"?>
<svg width="64px" height="64px" viewBox="0 0 64 64" version="1.1" xmlns="http://www.w3.org/2000/svg" xmlns:xlink="http://www.w3.org/1999/xlink">
    <!-- Generator: Sketch 54.1 (76490) - https://sketchapp.com -->
    <title>about-black</title>
    <desc>Created with Sketch.</desc>
    <g id="about-black" stroke="none" stroke-width="1" fill="none" fill-rule="evenodd">
        <path d="M19,12.7804878 C19.7371311,12.130078 20.5447111,11.512198 21.4227642,10.9268293 C22.3008174,10.3414605 23.2493174,9.83198049 24.2682927,9.39837398 C25.287268,8.96476748 26.392948,8.62330748 27.5853659,8.37398374 C28.7777837,8.12466 30.0677437,8 31.4552846,8 C33.3414728,8 35.0596128,8.26016 36.6097561,8.7804878 C38.1598993,9.30081561 39.4877993,10.0433556 40.5934959,11.0081301 C41.6991925,11.9729046 42.5555525,13.1382046 43.1626016,14.504065 C43.7696507,15.8699255 44.0731707,17.3983655 44.0731707,19.0894309 C44.0731707,20.7371356 43.8346907,22.1625956 43.3577236,23.3658537 C42.8807564,24.5691117 42.2845564,25.6151717 41.5691057,26.504065 C40.853655,27.3929584 40.067755,28.1625984 39.2113821,28.8130081 C38.3550093,29.4634179 37.5474293,30.0758779 36.7886179,30.6504065 C36.0298065,31.2249351 35.3739865,31.7886151 34.8211382,32.3414634 C34.2682899,32.8943117 33.9376699,33.5176117 33.8292683,34.2113821 L33.0813008,38.9593496 L27.5853659,38.9593496 L27.0325203,33.6585366 C26.9024384,32.6395613 27.0487784,31.7452613 27.4715447,30.9756098 C27.8943111,30.2059582 28.4579911,29.5013582 29.1626016,28.8617886 C29.8672122,28.222219 30.6531122,27.604339 31.5203252,27.0081301 C32.3875382,26.4119211 33.2005382,25.7615211 33.9593496,25.0569106 C34.718161,24.3523 35.352301,23.56098 35.8617886,22.6829268 C36.3712763,21.8048737 36.6260163,20.7588137 36.6260163,19.5447154 C36.6260163,18.7642237 36.4796763,18.0650437 36.1869919,17.4471545 C35.8943075,16.8292652 35.4878075,16.2981052 34.9674797,15.8536585 C34.4471519,15.4092119 33.8238519,15.0677519 33.097561,14.8292683 C32.3712701,14.5907847 31.5853701,14.4715447 30.7398374,14.4715447 C29.5040589,14.4715447 28.4579989,14.6070447 27.601626,14.8780488 C26.7452532,15.1490528 26.0189732,15.4525728 25.4227642,15.7886179 C24.8265553,16.1246629 24.3224953,16.4281829 23.9105691,16.699187 C23.4986429,16.9701911 23.1300829,17.1056911 22.804878,17.1056911 C22.0243863,17.1056911 21.4607063,16.7804911 21.1138211,16.1300813 L19,12.7804878 Z M25.1463415,51.1219512 C25.1463415,50.4498611 25.2710015,49.8103011 25.5203252,49.203252 C25.7696489,48.5962029 26.1111089,48.0758829 26.5447154,47.6422764 C26.978322,47.2086699 27.498642,46.8617899 28.1056911,46.601626 C28.7127402,46.3414621 29.3631402,46.2113821 30.0569106,46.2113821 C30.750681,46.2113821 31.395661,46.3414621 31.9918699,46.601626 C32.5880789,46.8617899 33.1083989,47.2086699 33.5528455,47.6422764 C33.9972922,48.0758829 34.3495922,48.5962029 34.6097561,49.203252 C34.86992,49.8103011 35,50.4498611 35,51.1219512 C35,51.8157216 34.86992,52.4607016 34.6097561,53.0569106 C34.3495922,53.6531195 33.9972922,54.1680195 33.5528455,54.601626 C33.1083989,55.0352325 32.5880789,55.3766925 31.9918699,55.6260163 C31.395661,55.87534 30.750681,56 30.0569106,56 C29.3631402,56 28.7127402,55.87534 28.1056911,55.6260163 C27.498642,55.3766925 26.978322,55.0352325 26.5447154,54.601626 C26.1111089,54.1680195 25.7696489,53.6531195 25.5203252,53.0569106 C25.2710015,52.4607016 25.1463415,51.8157216 25.1463415,51.1219512 Z" id="?" fill="#191B1F" fill-rule="nonzero"></path>
    </g>
</svg>