<svg width="64" height="64" xmlns="http://www.w3.org/2000/svg"><path d="M19 12.78a22.613 22.613 0 0 1 2.423-1.853 17.39 17.39 0 0 1 2.845-1.529 17.71 17.71 0 0 1 3.317-1.024c1.193-.25 2.483-.374 3.87-.374 1.886 0 3.605.26 5.155.78 1.55.52 2.878 1.263 3.983 2.228a9.933 9.933 0 0 1 2.57 3.496c.607 1.366.91 2.894.91 4.585 0 1.648-.238 3.074-.715 4.277-.477 1.203-1.073 2.25-1.789 3.138a13.543 13.543 0 0 1-2.358 2.309L36.79 30.65a19.02 19.02 0 0 0-1.968 1.691c-.553.553-.883 1.177-.992 1.87l-.748 4.748h-5.496l-.552-5.3c-.13-1.02.016-1.914.439-2.683a8.159 8.159 0 0 1 1.69-2.114 22.29 22.29 0 0 1 2.358-1.854 21.372 21.372 0 0 0 2.44-1.951 10.237 10.237 0 0 0 1.902-2.374c.51-.878.764-1.924.764-3.138 0-.78-.146-1.48-.439-2.098a4.743 4.743 0 0 0-1.22-1.593 5.468 5.468 0 0 0-1.87-1.025 7.515 7.515 0 0 0-2.357-.357c-1.236 0-2.282.135-3.138.406-.857.271-1.583.575-2.18.91-.595.337-1.1.64-1.511.911-.412.271-.78.407-1.106.407-.78 0-1.344-.326-1.691-.976L19 12.78zm6.146 38.342c0-.672.125-1.312.374-1.919a4.704 4.704 0 0 1 1.025-1.56 4.913 4.913 0 0 1 1.56-1.041 4.9 4.9 0 0 1 1.952-.39c.694 0 1.339.13 1.935.39.596.26 1.116.607 1.56 1.04.445.434.798.954 1.058 1.561s.39 1.247.39 1.919a4.833 4.833 0 0 1-1.447 3.48A4.94 4.94 0 0 1 30.057 56a5.085 5.085 0 0 1-1.951-.374 4.708 4.708 0 0 1-1.561-1.024 4.749 4.749 0 0 1-1.025-1.545 4.965 4.965 0 0 1-.374-1.935z" fill="#191B1F"/></svg>